
<svg width="99px" height="126px" viewBox="0 0 99 126" version="1.1" xmlns="http://www.w3.org/2000/svg" xmlns:xlink="http://www.w3.org/1999/xlink">
    <g id="Page-1" stroke="none" stroke-width="1" fill="none" fill-rule="evenodd">
        <g id="30-Cute-Christmas-Avatar" transform="translate(-969.000000, -142.000000)" fill-rule="nonzero">
            <g id="boy-2" transform="translate(969.000000, 142.000000)">
                <path d="M91.7940743,36.0600702 L91.7940743,52.5670526 L78.8674678,42.7132632 L42.6932599,39.4043509 L25.6569282,37.8466667 L27.2637178,20.7936842 C34.6372574,5.98266667 51.8693837,-1.6694386 68.1176361,3.48403509 C73.6082153,5.2254386 78.3506584,8.22733333 82.1288317,12.0721754 C88.3949926,18.4461053 91.7940743,27.1121053 91.7940743,36.0600702 Z" id="Shape" fill="#FF525D"></path>
                <path d="M44.8624381,32.9424912 C44.9604579,35.4337544 44.1593911,37.5725614 42.6932599,39.4043509 L25.6569282,37.8466667 L27.2637178,20.7936842 C34.6372574,5.98266667 51.8693837,-1.6694386 68.1176361,3.48403509 C60.6762178,3.48403509 44.1067054,13.6222456 44.8624381,32.9424912 Z" id="Shape" fill="#EF4152"></path>
                <path d="M78.4731832,123.867825 L78.4731832,112.328877 C78.4731832,102.185509 73.9015396,93.1117895 66.7088465,87.0677193 L24.4794653,87.0677193 C17.2867723,93.1117895 12.7151287,102.185754 12.7151287,112.328877 L12.7151287,123.867825" id="Shape" fill="#4BC999"></path>
                <path d="M36.1528886,87.0672281 L24.4794653,87.0672281 C17.2867723,93.1112982 12.7151287,102.185263 12.7151287,112.328386 L12.7151287,123.867579 L24.388552,123.867579 L24.388552,112.328386 C24.3883069,102.185263 28.9599505,93.1115439 36.1528886,87.0672281 Z" id="Shape" fill="#41B787"></path>
                <path d="M26.5555248,88.4925263 C27.2558762,98.416807 35.5130644,106.250175 45.5929307,106.250175 C55.672797,106.250175 63.9297401,98.416807 64.6303366,88.4925263" id="Shape" fill="#FF525D"></path>
                <path d="M15.1661139,67.3210877 C10.9206312,67.3210877 7.47891089,63.8714386 7.47891089,59.6161754 C7.47891089,55.3609123 10.9206312,51.9112632 15.1661139,51.9112632 L76.0217079,51.9112632 C80.2671906,51.9112632 83.7089109,55.3609123 83.7089109,59.6161754 C83.7089109,63.8714386 80.2671906,67.3210877 76.0217079,67.3210877" id="Shape" fill="#EFC1AB"></path>
                <path d="M75.4203564,47.3534035 C75.814396,49.311193 76.0204827,51.3367719 76.0204827,53.4102456 L76.0204827,67.5040702 C76.0204827,84.3482807 62.3984257,93.3817193 45.5929307,93.3817193 C28.7898861,93.3817193 15.1653787,84.3482807 15.1653787,67.5040702 L15.1653787,53.4102456 C15.1653787,51.3846667 15.3611733,49.4067368 15.7402649,47.4919298 L15.7402649,47.4894737" id="Shape" fill="#FFDAC5"></path>
                <path d="M26.4621609,67.5040702 L26.4621609,53.4102456 C26.4621609,51.3846667 26.6579554,49.4067368 27.037047,47.4919298 L27.037047,47.4894737 L75.4255025,47.379193 C75.4237871,47.3705965 75.4225619,47.362 75.4208465,47.3534035 L15.7405099,47.4892281 L15.7405099,47.4916842 C15.3614183,49.4064912 15.1656238,51.3844211 15.1656238,53.41 L15.1656238,67.5038246 C15.1656238,84.3480351 28.7903762,93.3814737 45.5931757,93.3814737 C47.5234307,93.3814737 49.4112921,93.2608772 51.2418119,93.0241053 C37.1372525,91.2018947 26.4621609,82.4133333 26.4621609,67.5040702 Z" id="Shape" fill="#EFC1AB"></path>
                <path d="M71.9222748,36.476386 L64.8195149,33.3192632 L48.6273787,33.3192632 L31.6819604,33.3192632 L15.1651337,42.4922105 L15.1651337,58.5362105 C15.3560272,58.5462807 15.5466757,58.5514386 15.7400198,58.5514386 C21.4413416,58.5514386 26.131099,54.2180702 26.7111312,48.6595789 C31.7170025,50.8966316 38.3448564,52.2605263 45.6154752,52.2605263 C52.9488267,52.2605263 59.6291213,50.8740351 64.6477351,48.5994035 C65.2025272,54.1881053 69.9072327,58.5514386 75.626198,58.5514386 C75.7592599,58.5514386 75.8898713,58.5489825 76.0202376,58.5438246 L76.0202376,35.2063158 L71.9222748,36.476386 Z" id="Shape" fill="#5C5E70"></path>
                <path d="M89.2911386,27.3412632 C84.7344431,34.0573333 80.1804431,40.7758596 75.6264431,47.4919298 C62.6270569,38.6370526 46.6951634,36.1509474 32.0487995,40.0360702 C26.3347351,41.5507719 20.8142599,44.0371228 15.7405099,47.4919298 C11.1865099,40.7758596 6.63226485,34.0573333 2.07826485,27.3412632 C8.47748762,29.686386 14.2996188,32.7916842 19.443698,36.4781053 C19.8252401,30.149614 21.0379901,23.6852982 23.1040025,17.2585614 C24.705646,18.5242105 26.2396559,19.8402105 27.7033366,21.199193 C31.0798738,24.324386 34.0976584,27.6762807 36.7312054,31.1939649 C38.8851906,25.2680351 41.8752847,19.4403509 45.6811485,13.8968421 C49.4870124,19.4403509 52.4771064,25.2655789 54.6310916,31.1915088 C58.4068144,26.1463509 62.9711064,21.4408772 68.2582946,17.2561053 C70.3270025,23.6828421 71.5395074,30.149614 71.923745,36.4756491 C77.0673342,32.7914386 82.8892203,29.686386 89.2911386,27.3412632 Z" id="Shape" fill="#4BC999"></path>
                <path d="M32.0485545,40.0358246 C26.3344901,41.5505263 20.8140149,44.0368772 15.7402649,47.4916842 C11.1862649,40.775614 6.6320198,34.0570877 2.0780198,27.3410175 C8.47724257,29.6861404 14.2993738,32.7914386 19.443453,36.4778596 C19.824995,30.1493684 21.037745,23.6850526 23.1037574,17.2583158 C24.705401,18.5239649 26.2394109,19.8399649 27.7030916,21.1989474 C27.9790173,26.3094386 29.091297,32.7712982 32.0485545,40.0358246 Z" id="Shape" fill="#41B787"></path>
                <ellipse id="Oval" fill="#FCB997" cx="63.4268985" cy="73.9450526" rx="3.78331931" ry="2.29894737"></ellipse>
                <ellipse id="Oval" fill="#FCB997" cx="27.7599431" cy="73.9450526" rx="3.78331931" ry="2.29894737"></ellipse>
                <path d="M31.4783243,61.7552281 C30.4385792,61.7552281 29.5953639,62.6001404 29.5953639,63.6425263 L29.5953639,67.5659649 C29.5953639,68.6081053 30.4383342,69.4532632 31.4783243,69.4532632 C32.5183144,69.4532632 33.3612847,68.6083509 33.3612847,67.5659649 L33.3612847,63.6425263 C33.3610396,62.6001404 32.5180693,61.7552281 31.4783243,61.7552281 Z" id="Shape" fill="#000000"></path>
                <path d="M60.5784431,61.7552281 C59.538698,61.7552281 58.6954827,62.6001404 58.6954827,63.6425263 L58.6954827,67.5659649 C58.6954827,68.6081053 59.538453,69.4532632 60.5784431,69.4532632 C61.6184332,69.4532632 62.4614035,68.6083509 62.4614035,67.5659649 L62.4614035,63.6425263 C62.4614035,62.6001404 61.6184332,61.7552281 60.5784431,61.7552281 Z" id="Shape" fill="#000000"></path>
                <path d="M50.3037624,77.4784561 C47.9463861,79.8412632 44.1108713,79.8412632 41.753005,77.4784561 C41.0176114,76.7411228 39.8254455,76.7413684 39.090297,77.4784561 C38.3549035,78.2155439 38.3549035,79.4104561 39.090297,80.1472982 C41.0033985,82.0645614 43.5158911,83.023193 46.0283837,83.023193 C48.5411213,83.023193 51.0536139,82.0645614 52.9667153,80.1472982 C53.7021089,79.4102105 53.7021089,78.2155439 52.9667153,77.4784561 C52.2315668,76.7413684 51.0391559,76.7413684 50.3037624,77.4784561 Z" id="Shape" fill="#000000"></path>
                <path d="M93.6770347,50.7271579 L93.6770347,36.0600702 C93.6770347,26.4322456 90.0520173,17.4425263 83.4697426,10.7475789 C82.7399851,10.0053333 81.5475743,9.99624561 80.8070347,10.7279298 C80.066495,11.4593684 80.0576733,12.6545263 80.7874307,13.3967719 C84.1725446,16.8400351 86.7129728,21.0894035 88.2428168,25.7216842 C83.0195866,27.6679298 78.0850248,30.1385614 73.5332302,33.0947719 C72.963245,27.6102105 71.7953391,22.1018246 70.0496064,16.6764561 C69.8604282,16.0882105 69.3955693,15.6298947 68.8054901,15.4501053 C68.2149208,15.2705614 67.5750965,15.3914035 67.0908787,15.774807 C62.6630792,19.2797193 58.6707327,23.1898947 55.1880891,27.4294386 C53.093651,22.3769123 50.4250619,17.4776491 47.2318218,12.8257193 C46.8806658,12.3138596 46.3003886,12.0080702 45.6806584,12.0080702 C45.0609282,12.0080702 44.480896,12.3138596 44.129495,12.8257193 C40.9365,17.4778947 38.268646,22.3771579 36.174698,27.4301754 C34.1523045,24.9686316 31.9527401,22.6220351 29.601,20.3972632 C33.0517871,14.1657895 38.510755,9.22059649 45.1055272,6.38670175 C52.2041213,3.33592982 60.1750916,2.94392982 67.5503465,5.28340351 C70.0964109,6.09098246 72.5282822,7.20533333 74.7778366,8.59575439 C75.6629554,9.14273684 76.8230198,8.86691228 77.368745,7.97975439 C77.9144703,7.09259649 77.6395248,5.92985965 76.7544059,5.38263158 C74.2416683,3.82961404 71.527255,2.58557895 68.6866411,1.68442105 C60.4515074,-0.927438596 51.5500842,-0.489754386 43.6217525,2.91740351 C36.5248738,5.9674386 30.6054579,11.2085965 26.7346559,17.8165965 C25.9274629,17.1242105 25.1094876,16.4409123 24.2709282,15.7770175 C23.7869554,15.3941053 23.146151,15.2727719 22.5560718,15.4525614 C21.9657475,15.6325965 21.5011337,16.0906667 21.3119554,16.6791579 C19.567448,22.1037895 18.4005223,27.6116842 17.8317624,33.0955088 C13.1640594,30.0636491 8.09594554,27.538 2.72470545,25.5689123 C1.95696535,25.2879298 1.09561634,25.5347719 0.593019802,26.1809825 C0.0904232673,26.827193 0.0610173267,27.7244211 0.520485149,28.4020702 L13.7485025,47.911193 C13.6196064,48.6615439 13.5176658,49.4197544 13.4421906,50.1826316 C8.9857203,50.9990526 5.5959505,54.9168421 5.5959505,59.6156842 C5.5959505,64.2712982 8.92298762,68.1615789 13.3189307,69.0268772 C13.6637153,76.3213684 16.5021238,82.522386 21.5964579,87.1247018 C14.7304158,93.6882456 10.8324134,102.750912 10.8324134,112.32814 L10.8324134,123.867088 C10.8324134,124.909228 11.6753837,125.754877 12.7153738,125.754877 C13.7553639,125.754877 14.5983342,124.909474 14.5983342,123.867088 L14.5983342,112.32814 C14.5983342,103.602211 18.2277624,95.3549825 24.6015,89.4744912 C24.6563911,89.5115789 24.7127525,89.547193 24.7681337,89.5840351 C25.0386683,91.9141754 25.6912351,94.1615439 26.7143168,96.2770175 C27.0397426,96.9495088 27.7109332,97.3415088 28.4098144,97.3415088 C28.685495,97.3415088 28.9650965,97.2805965 29.22975,97.152386 C30.165349,96.6977544 30.556203,95.5689123 30.1028614,94.6306667 C29.6835817,93.7638947 29.3449233,92.868386 29.0785545,91.9524912 C33.8795644,94.114386 39.5392277,95.2687719 45.5934208,95.2687719 C51.6461436,95.2687719 57.3038465,94.1153684 62.1038762,91.9547018 C60.0028218,99.1406316 53.3391906,104.362632 45.5934208,104.362632 C41.213651,104.362632 37.040703,102.71186 33.8435421,99.714386 C33.0843787,99.0023509 31.892703,99.042386 31.1820594,99.8035439 C30.4716609,100.564702 30.511604,101.758877 31.2710124,102.471158 C35.1680347,106.125158 40.2547723,108.137474 45.5934208,108.137474 C56.226854,108.137474 65.1929703,100.063895 66.4177277,89.5857544 C66.4738441,89.5484211 66.5311856,89.5120702 66.587302,89.4744912 C72.9615297,95.3547368 76.5909579,103.602456 76.5909579,112.328632 L76.5909579,123.867579 C76.5909579,124.909719 77.4339282,125.754877 78.4739183,125.754877 C79.5139084,125.754877 80.3568787,124.909965 80.3568787,123.867579 L80.3568787,112.328632 C80.3568787,102.751158 76.4583861,93.688 69.592099,87.1244561 C74.6852079,82.5226316 77.5228812,76.3218596 77.8679109,69.027614 C82.2648342,68.1630526 85.5928515,64.2725263 85.5928515,59.6161754 C85.5928515,54.9165965 82.2025916,50.9985614 77.7453861,50.1828772 C77.6772624,49.4934386 77.5851238,48.8079298 77.4741163,48.1273333 L79.3095371,45.4201754 L88.664302,52.5513333 C87.6875347,53.6010877 87.0881436,55.0079649 87.0881436,56.5533684 C87.0881436,59.7920351 89.7170347,62.4267368 92.9480124,62.4267368 C96.1789901,62.4267368 98.8078812,59.7917895 98.8078812,56.5533684 C98.8078812,53.5627719 96.564698,51.0889474 93.6770347,50.7271579 Z M18.3475916,38.0127018 C18.9050792,38.4120702 19.6348366,38.4761754 20.2528515,38.1807018 C20.8711114,37.8852281 21.2805891,37.2763509 21.3217574,36.5910877 C21.6447327,31.2423509 22.5734703,25.8435088 24.0878762,20.5055789 C28.2816535,24.0787719 32.0201287,28.0449474 35.2253762,32.3252632 C35.64,32.8791228 36.3239332,33.1613333 37.0076213,33.0591579 C37.6910644,32.9574737 38.2642351,32.4888421 38.5004629,31.8382105 C40.3197104,26.8328421 42.7295272,21.958386 45.6801683,17.3130877 C48.6312995,21.9578947 51.0418515,26.8323509 52.8613441,31.8374737 C53.0978168,32.4881053 53.6709876,32.9567368 54.3544307,33.0584211 C55.0383639,33.1601053 55.7218069,32.8781404 56.1366757,32.3245263 C59.3416782,28.0439649 63.0801535,24.076807 67.2736856,20.5033684 C68.7893168,25.8420351 69.7195248,31.2408772 70.0429901,36.5901053 C70.0846485,37.2753684 70.4938812,37.884 71.1121411,38.1794737 C71.7301559,38.4749474 72.4601584,38.4103509 73.0171559,38.0114737 C76.4946535,35.5202105 80.2372946,33.3398947 84.1965594,31.4958246 L75.1101238,44.8970175 C66.2880965,39.3137193 56.1555446,36.3722456 45.6840891,36.3722456 C35.2126337,36.3722456 25.0795916,39.3134737 16.2578094,44.8970175 L7.17235396,31.4972982 C11.1296584,33.3418596 14.8713193,35.5221754 18.3475916,38.0127018 Z M17.0480941,53.4102456 C17.0480941,51.7955789 17.1831163,50.1877895 17.4482599,48.6197895 C25.8568886,43.074807 35.6012822,40.1468421 45.683599,40.1468421 C55.6845594,40.1468421 65.3537228,43.0269123 73.7157921,48.4856842 C73.9951485,50.1013333 74.1372772,51.7543158 74.1372772,53.4104912 L74.1372772,56.5420702 C70.1027822,55.8867719 66.9379678,52.6115088 66.5213837,48.4124912 C66.4613465,47.8075439 66.1141114,47.2689123 65.5889703,46.9648421 C65.0638292,46.6610175 64.4247401,46.6290877 63.8719084,46.8798596 C58.9015693,49.1326316 52.4178045,50.3734737 45.6154752,50.3734737 C38.8797995,50.3734737 32.4384282,49.1527719 27.4778911,46.9361053 C26.9270198,46.69 26.2918515,46.7231579 25.769651,47.0255088 C25.2472054,47.327614 24.9011955,47.8623158 24.8384629,48.4635789 C24.3968837,52.6972281 21.1475272,55.9879649 17.0480941,56.5717895 L17.0480941,53.4102456 L17.0480941,53.4102456 L17.0480941,53.4102456 Z M9.36162624,59.6161754 C9.36162624,57.0691579 11.003703,54.9006316 13.2824183,54.1146667 L13.2824183,65.1174386 C11.0041931,64.3317193 9.36162624,62.1634386 9.36162624,59.6161754 Z M65.9406163,85.2791579 C60.8832847,89.2873333 53.6570198,91.4946667 45.5926856,91.4946667 C37.5290866,91.4946667 30.3030668,89.2873333 25.2457351,85.2791579 C19.8828267,81.028807 17.0480941,74.8825614 17.0480941,67.5038246 L17.0480941,60.3704561 C22.2737748,59.8470526 26.6128663,56.2225263 28.1030124,51.2606316 C33.1686757,53.1307368 39.2909926,54.1475789 45.6154752,54.1475789 C52.0002401,54.1475789 58.1639703,53.1145263 63.2485025,51.2147018 C64.7075272,56.1466316 68.9691832,59.7635439 74.1377673,60.3522807 L74.1377673,67.5040702 C74.1377673,74.8825614 71.3032797,81.0290526 65.9406163,85.2791579 Z M81.8261955,59.6161754 C81.8261955,62.1639298 80.1831386,64.3329474 77.9034431,65.1184211 L77.9034431,54.1141754 C80.1828936,54.8996491 81.8261955,57.0684211 81.8261955,59.6161754 Z M89.4337574,30.4868421 C89.748646,32.3176491 89.9113589,34.1830877 89.9113589,36.0605614 L89.9113589,48.7612632 L81.4279901,42.2944912 L89.4337574,30.4868421 Z M92.9467871,58.652386 C91.7918688,58.652386 90.8528391,57.7107018 90.8528391,56.553614 C90.8528391,55.3962807 91.7923589,54.4548421 92.9467871,54.4548421 C94.1014604,54.4548421 95.0407351,55.3965263 95.0407351,56.553614 C95.0407351,57.7107018 94.1014604,58.652386 92.9467871,58.652386 Z" id="Shape" fill="#000000"></path>
                <path d="M65.508104,110.820316 C64.7727104,110.083228 63.5805446,110.083228 62.845396,110.820316 L60.8774035,112.792842 L58.9094109,110.820316 C58.1740173,110.083228 56.9818515,110.083228 56.246703,110.820316 C55.5113094,111.557404 55.5113094,112.752316 56.246703,113.489158 L58.2146955,115.461684 L56.246703,117.434211 C55.5113094,118.171298 55.5113094,119.366211 56.246703,120.103053 C56.6142772,120.471474 57.0962896,120.65593 57.5780569,120.65593 C58.0598243,120.65593 58.5418366,120.471719 58.9094109,120.103053 L60.8774035,118.130526 L62.845396,120.103053 C63.2129703,120.471474 63.6949827,120.65593 64.17675,120.65593 C64.6585173,120.65593 65.1405297,120.471719 65.508104,120.103053 C66.2434975,119.365965 66.2434975,118.171053 65.508104,117.434211 L63.5401114,115.461684 L65.508104,113.489158 C66.2437426,112.75207 66.2437426,111.557158 65.508104,110.820316 Z" id="Shape" fill="#000000"></path>
            </g>
        </g>
    </g>
</svg>